<svg aria-hidden="true" style="position:absolute;width:0;height:0" xmlns="http://www.w3.org/2000/svg" overflow="hidden">
    <defs>
        <symbol id="icon-coments-house" viewBox="0 0 35 32"><path d="M34.472 15.381c0.633-0.649 0.572-1.644-0.136-2.222l-15.601-12.734c-0.708-0.578-1.843-0.566-2.537 0.027l-15.654 13.386c-0.693 0.593-0.727 1.587-0.075 2.219l0.392 0.381c0.651 0.632 1.704 0.707 2.349 0.168l1.17-0.977v14.308c0 0.878 0.763 1.588 1.703 1.588h6.102c0.94 0 1.703-0.711 1.703-1.588v-10.010h7.783v10.010c-0.014 0.877 0.659 1.588 1.6 1.588h6.467c0.94 0 1.703-0.711 1.703-1.588v-14.106c0 0 0.323 0.264 0.722 0.591s1.234 0.065 1.866-0.585l0.444-0.455z"></path></symbol> 
        <symbol id="icon-coments-marks" viewBox="0 0 43 32"><path fill="#e1e1e1" style="fill: var(--color4, #e1e1e1)" d="M32.014 0c1.929 0 3.75 0.52 5.464 1.561s3.107 2.537 4.179 4.488c1.029 1.951 1.543 4.249 1.543 6.894s-0.643 5.225-1.929 7.74c-0.429 0.911-1.2 2.081-2.314 3.512-1.157 1.431-2.229 2.667-3.214 3.707l-4.050 4.098-2.893-4.813c2.014-1.257 3.793-2.818 5.336-4.683 1.543-1.821 2.314-3.491 2.314-5.008 0-0.78-0.171-1.409-0.514-1.886-1.5 1.084-3.171 1.626-5.014 1.626-1.329 0-2.593-0.412-3.793-1.236-1.243-0.78-2.229-1.821-2.957-3.122-0.771-1.258-1.157-2.558-1.157-3.902 0-1.518 0.45-2.97 1.35-4.358 0.857-1.388 1.993-2.515 3.407-3.382 1.371-0.824 2.786-1.236 4.243-1.236zM8.936 0c1.929 0 3.75 0.52 5.464 1.561s3.107 2.537 4.179 4.488c1.029 1.951 1.543 4.249 1.543 6.894 0 1.864-0.236 3.534-0.707 5.008-0.471 1.518-1.286 3.1-2.443 4.748-1.114 1.561-2.164 2.862-3.15 3.902-0.986 1.084-2.7 2.884-5.143 5.398l-2.893-4.813c2.014-1.257 3.793-2.818 5.336-4.683 1.543-1.821 2.314-3.491 2.314-5.008 0-0.78-0.171-1.409-0.514-1.886-1.5 1.084-3.171 1.626-5.014 1.626-1.329 0-2.593-0.412-3.793-1.236-1.243-0.78-2.229-1.821-2.957-3.122-0.771-1.258-1.157-2.558-1.157-3.902 0-1.518 0.429-2.97 1.286-4.358s1.993-2.515 3.407-3.382c1.371-0.824 2.786-1.236 4.243-1.236z"></path></symbol>
        <symbol id="icecream" viewbox="0 0 22 16"><ellipse cx="25" cy="25.5" fill="#fff" rx="24" ry="24.5"/><path fill="#D41443" d="M18.514.877C6.943 4.381 0 13.492 0 25.005c0 9.41 4.83 17.62 12.779 21.725 4.125 2.102 4.73.6.905-2.303-2.716-2.202-3.22-3.203-3.22-6.908 0-2.603-.603-4.705-1.509-5.506-1.81-1.502-2.012-5.406-.2-6.808.703-.6 1.408-2.603 1.508-4.405.504-6.607 7.648-12.814 14.792-12.814S39.343 14.193 39.846 20.8c.1 1.802.805 3.805 1.51 4.405 1.81 1.402 1.61 5.306-.202 6.808-.905.801-1.51 2.903-1.51 5.506 0 3.705-.502 4.706-3.219 6.908-4.226 3.304-3.019 4.505 1.71 1.602 6.642-4.105 11.572-13.015 11.572-20.924 0-15.818-16.502-28.633-31.193-24.228Z"/><path fill="#D41443" d="M19.823 12.49c-1.812.802-3.321 1.803-3.321 2.403 0 1.102 5.434 3.104 8.553 3.104 3.12 0 8.553-2.002 8.553-3.104 0-1.2-6.239-3.904-8.754-3.904-1.007.1-3.321.7-5.031 1.502ZM71.642 17.697c-1.509.4-1.81 1.702-1.81 8.91v8.41h7.143l-.301-8.71c-.302-9.11-.705-9.812-5.032-8.61ZM83.415 18.197c-3.32 1.803-4.528 4.005-4.528 8.31 0 5.907 3.22 8.71 9.157 8.31 4.025-.3 4.427-.601 4.729-3.104.302-2.503.1-2.703-3.019-2.503-3.22.3-3.32.1-3.32-3.204 0-3.303.201-3.504 3.12-3.203 2.414.2 3.32-.2 3.722-1.702.201-1.001 0-2.403-.604-3.004-1.408-1.401-6.64-1.401-9.257.1ZM95.39 18.297c-.303.801-.403 4.706-.202 8.81l.302 7.409h6.54c6.038 0 6.541-.2 6.842-2.303.302-1.902-.1-2.202-3.219-2.202-2.013 0-3.623-.5-3.623-1.001 0-.601 1.409-1.002 3.019-1.002 2.314 0 3.019-.4 3.019-2.002 0-1.602-.705-2.002-3.019-2.002-1.61 0-3.019-.5-3.019-1.001 0-.601 1.308-1.002 2.918-1.002 2.818 0 4.729-2.202 3.522-4.104-.906-1.502-12.477-1.101-13.08.4ZM115.614 17.997c-3.32 1.302-4.628 3.604-4.729 7.809-.101 7.208 2.817 9.711 10.364 9.01 2.918-.2 3.421-.7 3.421-2.803 0-2.202-.402-2.503-3.22-2.202-2.415.2-3.32-.1-3.823-1.702-.906-3.104 1.006-5.607 4.226-5.607 1.912 0 2.918-.6 3.119-1.902.704-3.204-4.427-4.705-9.358-2.603ZM127.991 17.597c-.504.4-.805 4.505-.805 9.11v8.41l3.219-.3c2.516-.2 3.422-.902 3.925-2.804l.603-2.503.805 2.703c.604 2.303 1.308 2.804 3.925 2.804 4.326 0 4.829-.701 3.018-4.205-1.107-2.203-1.308-3.304-.503-4.105 1.308-1.301 1.409-5.707.201-7.609-1.006-1.601-13.08-2.903-14.388-1.501Zm8.25 5.406c0 1.101-.402 2.002-1.006 2.002-.503 0-1.006-.9-1.006-2.002 0-1.101.503-2.003 1.006-2.003.604 0 1.006.902 1.006 2.003ZM146.002 17.697c-.403.3-.704 4.405-.704 9.01v8.31h6.54c6.339 0 6.54-.1 6.54-2.503 0-2.103-.503-2.503-3.018-2.503-1.61 0-3.019-.5-3.019-1.001 0-.601 1.107-1.001 2.516-1.001 1.811 0 2.515-.501 2.515-2.003 0-1.501-.704-2.002-2.515-2.002-1.409 0-2.516-.5-2.516-1.001 0-.6 1.409-1.001 3.019-1.001 2.515 0 3.018-.4 3.018-2.503 0-2.403-.301-2.503-5.836-2.503-3.22 0-6.238.3-6.54.7ZM166.328 17.597c-1.812.5-6.44 13.816-5.535 16.018.805 2.002 5.333 1.802 6.541-.3.905-1.702 1.006-1.702 2.817 0 2.315 2.002 7.346 2.303 7.346.4 0-.6-1.007-4.605-2.315-8.71-2.012-6.607-2.616-7.508-4.729-7.708-1.409 0-3.22.1-4.125.3Zm2.817 9.11c-.302 1.001-.503.4-.503-1.201 0-1.702.201-2.403.503-1.802.201.7.201 2.102 0 3.003ZM180.817 17.697c-.906.3-1.308 3.103-1.308 8.91v8.41h2.918c2.515 0 3.018-.501 3.421-2.804.402-2.603.402-2.603 1.207-.5.403 1.301 1.409 2.303 2.113 2.303.805 0 1.912-1.002 2.415-2.303.805-2.103.906-2.103.906.6.101 2.503.402 2.804 3.22 2.503l3.119-.3.101-8.31c.201-7.708.1-8.309-2.013-8.81-3.22-.8-5.936 1.102-6.842 4.806l-.704 3.304-1.107-3.504c-1.409-4.706-3.522-5.907-7.446-4.305ZM14.087 18.698c-.302.4-.604 1.702-.604 3.003 0 2.303.1 2.303 11.572 2.303 11.47 0 11.571 0 11.571-2.303 0-3.404-.905-3.804-4.125-2.202-3.623 1.902-11.27 1.902-14.892 0-1.61-.801-3.12-1.101-3.522-.801ZM11.169 27.608c-1.61 1.702 1.107 2.403 8.955 2.403h8.452v3.504c0 1.902.503 3.504 1.007 3.504.603 0 1.006-1.502 1.006-3.404 0-3.304.201-3.504 4.025-3.805 2.213-.2 4.025-.8 4.025-1.3 0-1.102-26.363-2.003-27.47-.902Z"/><path fill="#D41443" d="M13.483 36.418c0 5.506 1.912 6.608 11.572 6.608s11.571-1.102 11.571-6.608c0-2.403-.503-3.404-1.51-3.404-.905 0-1.508.901-1.508 2.403 0 5.606-7.648 6.107-8.755.6-.503-2.903-.805-3.003-5.936-3.003h-5.434v3.404ZM19.722 47.731c.604 3.204 10.867 2.904 10.867-.2 0-1.101-1.308-1.502-5.635-1.502-4.729 0-5.534.3-5.232 1.702Z"/></symbol>
        <symbol id="right" viewBox="0 0 1280.000000 1280.000000"><g transform="translate(0.000000,1280.000000) scale(0.100000,-0.100000)" stroke="none"><path d="M4250 8956 l0 -2813 -61 -7 c-34 -3 -526 -6 -1093 -6 l-1031 -1 66 -62 c36 -34 756 -714 1600 -1512 844 -797 1820 -1719 2169 -2049 349 -329 667 -630 705 -668 l70 -68 230 217 c1454 1373 3719 3512 4012 3790 l373 353 -1090 0 -1090 0 0 2820 0 2820 -2430 0 -2430 0 0 -2814z"/></g></symbol>
        <symbol id="greater" viewbox="0 0 22 50"><path d="M1 1L5 5L1 9" stroke-width="2" stroke-linecap="round" /></symbol>
        <symbol id="github" viewbox="0 0 22 16"><circle cx="17" cy="17" r="17"/><circle cx="17" cy="17" r="17" /><path fill="#fff" d="M17 7C11.507 7 7 11.507 7 17c0 4.687 3.289 8.945 7.656 10v-3.308c-.433.094-.83.097-1.271-.033-.591-.174-1.071-.568-1.428-1.168-.227-.383-.63-.8-1.05-.769l-.103-1.167c.909-.078 1.694.554 2.16 1.337.208.349.447.553.753.643.295.088.613.046.983-.085.093-.741.433-1.018.69-1.41-2.605-.388-3.643-1.77-4.055-2.86-.546-1.449-.253-3.258.712-4.402.019-.022.053-.08.04-.12-.443-1.338.096-2.444.116-2.561.511.15.594-.152 2.22.835l.28.169c.118.07.08.03.198.02A8.484 8.484 0 0 1 17 11.828c.71.009 1.42.11 2.127.302l.091.01c-.008-.002.025-.006.08-.039 2.03-1.23 1.957-.828 2.502-1.005.02.118.551 1.242.113 2.562-.059.182 1.76 1.848.752 4.522-.412 1.09-1.45 2.473-4.054 2.861.334.51.735.78.733 1.83V27C23.71 25.945 27 21.687 27 17c0-5.493-4.507-10-10-10Z"/></symbol>
        <symbol id="telegram" viewbox="0 0 22 16"><circle cx="17" cy="17" r="17" /><path fill="#fff" d="m13.671 19.524-.337 4.43c.483 0 .692-.194.943-.426l2.263-2.02 4.69 3.207c.861.447 1.467.211 1.7-.739l3.078-13.464v-.001c.274-1.187-.46-1.651-1.297-1.36L6.614 15.617c-1.235.448-1.217 1.09-.21 1.382l4.627 1.343 10.746-6.276c.506-.313.966-.14.588.173l-8.693 7.285Z"/></g><defs><clipPath id="a"><path fill="#fff" d="M0 0h34v34H0z"/></clipPath></defs></symbol>
        <symbol id="facebook" viewbox="0 0 22 16"><path  d="M17 34c9.389 0 17-7.611 17-17S26.389 0 17 0 0 7.611 0 17s7.611 17 17 17Z"/><path fill="#fff" d="M21.724 16.98H18.95V27.2h-4.202V16.98H12.75V13.39h1.998v-2.324c0-1.662.785-4.265 4.24-4.265l3.112.013V10.3h-2.258c-.37 0-.891.187-.891.98v2.113h3.14l-.367 3.588Z"/></g><defs><clipPath id="a"><path fill="#fff" d="M0 0h34v34H0z"/></clipPath></defs></symbol>
        <symbol id="icon-Group" viewBox="0 0 512 512"><circle fill="#ffa5ba" cx="336" cy="230" r="10"/><circle fill="#ffa5ba" cx="276" cy="230" r="10"/><circle  fill="#ffa5ba" cx="236" cy="330" r="10"/><circle fill="#ffa5ba" cx="216" cy="270" r="10"/><path fill="#ffa5ba" d="m126 130v120c0 60.95 42.162 112.818 100 126.515v105.485c0 16.542 13.458 30 30 30s30-13.458 30-30v-105.484c57.924-13.719 100-65.655 100-126.516v-15c0-5.522-4.477-10-10-10s-10 4.478-10 10v15c0 61.165-49.146 109.992-110 109.992-50.187 0-93.102-33.352-106.062-80.608 1.958.403 3.986.616 6.062.616 16.542 0 30-13.458 30-30v-120c0-5.514 4.486-10 10-10s10 4.486 10 10v60c0 16.542 13.458 30 30 30s30-13.458 30-30v-40c0-5.514 4.486-10 10-10s10 4.486 10 10v20c0 16.542 13.458 30 30 30s30-13.458 30-30v-40c0-5.514 4.486-10 10-10s10 4.486 10 10v15c0 5.522 4.477 10 10 10s10-4.478 10-10v-15c0-23.876-6.663-47.349-19.268-67.882-2.63-4.286-8.034-5.951-12.622-3.89-2.615 1.176-5.344 1.772-8.11 1.772-8.938 0-16.833-6.09-19.199-14.81-.747-2.754-2.635-5.057-5.189-6.33-2.553-1.273-5.529-1.395-8.178-.335-2.444.979-4.945 1.475-7.434 1.475-11.028 0-20-8.972-20-20 0-1.536.272-3.231.856-5.335.752-2.711.328-5.614-1.169-7.996s-3.929-4.023-6.698-4.521c-8.041-1.446-15.561-2.148-22.989-2.148-71.682 0-130 58.317-130 130zm130 250c3.334 0 6.673-.143 10-.397v102.397c0 5.514-4.486 10-10 10s-10-4.486-10-10v-102.397c3.327.254 6.666.397 10 .397zm0-360c3.279 0 6.596.166 10.003.504.271 21.824 18.109 39.496 39.997 39.496 1.767 0 3.529-.12 5.279-.358 6.97 12.337 20.149 20.358 34.721 20.358 2.526 0 5.027-.24 7.489-.719 3.566 6.825 6.396 13.968 8.456 21.311-1.922-.389-3.91-.592-5.944-.592-16.542 0-30 13.458-30 30v40c0 5.514-4.486 10-10 10s-10-4.486-10-10v-20c0-16.542-13.458-30-30-30s-30 13.458-30 30v40c0 5.514-4.486 10-10 10s-10-4.486-10-10v-60c0-16.542-13.458-30-30-30s-30 13.458-30 30v120c0 5.514-4.486 10-10 10s-10-4.486-10-10v-120c-.001-60.654 49.345-110 109.999-110z"/><path fill="#ffa5ba" d="m296 320c16.542 0 30-13.458 30-30s-13.458-30-30-30-30 13.458-30 30 13.458 30 30 30zm0-40c5.514 0 10 4.486 10 10s-4.486 10-10 10-10-4.486-10-10 4.486-10 10-10z"/><circle fill="#ffa5ba" cx="376" cy="190" r="10"/></g></symbol>
        <symbol id="icon-Group1" viewBox="0 0 21 32"><path fill="#ffa5ba" style="fill: var(--color1, #ffa5ba)" d="M2.333 0.144c-0.35 0.187-0.553 0.563-0.553 1.006 0.006 0.813 0.209 1.556 0.614 2.2l0.178 0.294-0.338 0.381c-0.381 0.425-0.473 0.581-0.645 1.087-0.141 0.412-0.153 1.162-0.031 1.581 0.43 1.438 1.854 2.269 3.248 1.9 0.473-0.125 0.761-0.281 1.203-0.656l0.375-0.313 0.35 0.175c0.196 0.1 0.528 0.244 0.743 0.325l0.381 0.138v0.7c0 1.106 0.227 1.762 0.81 2.356s1.498 0.9 2.29 0.762c0.565-0.1 1.117-0.381 1.492-0.762 0.583-0.594 0.81-1.25 0.81-2.356v-0.7l0.387-0.138c0.209-0.081 0.54-0.225 0.737-0.325l0.35-0.175 0.375 0.313c0.442 0.375 0.731 0.531 1.203 0.656 1.394 0.369 2.818-0.463 3.248-1.9 0.123-0.419 0.111-1.169-0.031-1.581-0.172-0.506-0.264-0.662-0.645-1.087l-0.338-0.381 0.178-0.294c0.405-0.644 0.608-1.387 0.614-2.2 0-0.444-0.203-0.819-0.553-1.006l-0.264-0.144h-15.926l-0.264 0.144zM17.068 2.1c0 0.019-0.178 0.313-0.399 0.663-0.651 1.031-0.626 1.256 0.239 2.169 0.313 0.331 0.602 0.662 0.645 0.737 0.233 0.463-0.233 1.037-0.749 0.919-0.123-0.025-0.393-0.244-0.786-0.631-0.786-0.775-1.056-0.862-1.658-0.519-0.694 0.4-1.578 0.806-2.008 0.925-0.608 0.175-0.817 0.306-0.976 0.638-0.129 0.256-0.141 0.362-0.141 1.362 0 1.231-0.049 1.431-0.399 1.6-0.252 0.125-0.301 0.125-0.553 0-0.35-0.169-0.399-0.369-0.399-1.6 0-1-0.012-1.106-0.135-1.362-0.166-0.325-0.375-0.462-0.982-0.638-0.528-0.15-1.308-0.494-1.738-0.775-0.405-0.263-0.761-0.362-1.044-0.313-0.184 0.037-0.368 0.181-0.86 0.662-0.405 0.394-0.694 0.625-0.817 0.65-0.51 0.119-0.976-0.463-0.743-0.919 0.043-0.075 0.332-0.406 0.645-0.737 0.866-0.912 0.89-1.138 0.239-2.169-0.221-0.35-0.399-0.644-0.399-0.663 0-0.025 2.929-0.038 6.508-0.038s6.508 0.013 6.508 0.038z"></path><path fill="#ffa5ba" style="fill: var(--color1, #ffa5ba)" d="M0.485 13.206c-0.313 0.212-0.485 0.512-0.485 0.844 0 0.225 3.119 16.925 3.229 17.275 0.055 0.194 0.282 0.425 0.522 0.55 0.227 0.125 0.387 0.125 6.809 0.125s6.582 0 6.809-0.125c0.239-0.125 0.467-0.356 0.522-0.55 0.11-0.35 3.229-17.050 3.229-17.275 0-0.331-0.172-0.631-0.485-0.844l-0.209-0.144h-19.732l-0.209 0.144zM18.695 15.481c-0.061 0.5-0.418 1.587-0.682 2.081-1.283 2.375-3.714 3.819-6.729 3.988-2.278 0.131-4.206-0.331-5.82-1.394-0.933-0.612-1.713-1.45-2.265-2.438-0.307-0.544-0.712-1.712-0.774-2.237l-0.043-0.356h16.356l-0.043 0.356zM4.39 21.919c2.634 1.775 6.569 2.244 9.885 1.169 1.105-0.356 2.235-0.956 3.18-1.688 0.276-0.219 0.295-0.219 0.264-0.081-0.018 0.081-0.381 1.994-0.804 4.244s-0.78 4.156-0.798 4.231l-0.031 0.144h-11.051l-0.031-0.144c-0.018-0.075-0.375-1.981-0.798-4.231s-0.786-4.163-0.804-4.244c-0.031-0.137-0.012-0.137 0.264 0.081 0.16 0.125 0.491 0.356 0.724 0.519z"></path></symbol>
        <symbol id="icon-Vector-1" viewBox="0 0 26 32"><path fill="none" stroke="#d41443" style="stroke: var(--color2, #d41443)" stroke-linejoin="round" stroke-linecap="round" stroke-miterlimit="4" stroke-width="6.4" d="M5.172 3.2l14.169 12.8-14.169 12.8"></path></symbol>
        <symbol id="icon-Vector-vaso-helado" viewBox="0 0 32 32"><path fill="#ffa5ba" style="fill: var(--color1, #ffa5ba)" d="M29.528 21.41c-1.292-0.458-2.382-0.344-3.242 0.018 0.145-0.877 0.47-1.832 1.17-2.481 0.431-0.4 0.456-1.074 0.056-1.505s-1.074-0.456-1.505-0.056c-1.229 1.14-1.706 2.748-1.874 4.081-0.32-0.144-0.673-0.253-1.058-0.311l1.89-9.83c0.060-0.312-0.022-0.634-0.225-0.879s-0.503-0.387-0.821-0.387h-0.204c0.094-0.5 0.141-0.997 0.137-1.47-0.016-1.994-0.903-3.495-2.374-4.017-1.41-0.5-2.59-0.35-3.507 0.066 0.145-0.976 0.494-2.063 1.282-2.794 0.431-0.4 0.456-1.074 0.056-1.505s-1.074-0.456-1.505-0.056c-1.32 1.225-1.815 2.965-1.982 4.386-0.735-0.348-1.644-0.527-2.708-0.33-1.094-1.571-2.613-2.296-4.089-1.942-1.451 0.349-2.358 1.115-2.901 1.962-0.41-0.899-0.712-2.001-0.452-3.036 0.143-0.57-0.203-1.149-0.773-1.292s-1.149 0.203-1.292 0.773c-0.439 1.746 0.095 3.476 0.729 4.758-1.016 0.137-2.117 0.65-3.049 1.866-0.578 0.755-0.773 1.698-0.596 2.7-0.173 0.065-0.329 0.173-0.449 0.318-0.202 0.245-0.285 0.567-0.225 0.879l3.809 19.81c0.096 0.501 0.535 0.864 1.046 0.864h15.237c0.511 0 0.949-0.362 1.046-0.864l0.037-0.195c0.287 0.198 0.596 0.363 0.927 0.487 1.266 0.471 2.447 0.278 3.044 0.118 0.316 0.085 0.795 0.179 1.364 0.179 0.506 0 1.084-0.075 1.68-0.297 2.36-0.879 3.615-3.839 3.596-6.178-0.015-1.904-0.866-3.339-2.276-3.839zM22.577 12.19c-0.49 4.705-4.452 7.909-9.971 7.909s-9.481-3.204-9.971-7.91h19.942zM15.934 7.515c0.184 0.349 0.536 0.567 0.93 0.567s0.746-0.218 0.93-0.567c0.029-0.048 0.29-0.466 0.769-0.777 0.629-0.408 1.35-0.46 2.203-0.157 0.851 0.302 0.952 1.518 0.956 2.027 0.004 0.464-0.064 0.962-0.191 1.453h-7.126c0.236-1.189 0.094-2.492-0.289-3.669 0.377 0.022 0.724 0.137 1.047 0.346 0.479 0.311 0.74 0.729 0.769 0.777zM2.98 8.724c0.55-0.719 1.182-1.068 1.932-1.069h0.002c0.57 0 1.016 0.208 1.066 0.232 0.341 0.189 0.749 0.172 1.079-0.037 0.331-0.211 0.51-0.591 0.481-0.983-0.006-0.077-0.115-1.893 1.983-2.397 0.876-0.211 1.625 0.754 1.906 1.178 0.807 1.22 1.221 3.108 0.777 4.413h-9.349c-0.141-0.443-0.179-0.943 0.122-1.336zM5.754 29.87l-2.111-10.978c0.138 0.133 0.281 0.263 0.427 0.389 2.208 1.901 5.239 2.948 8.535 2.948s6.328-1.047 8.535-2.948c0.052-0.044 0.102-0.090 0.152-0.135l-0.431 2.243c-0.020 0.007-0.041 0.013-0.061 0.021-1.41 0.5-2.261 1.935-2.276 3.839-0.009 1.164 0.297 2.483 0.898 3.622l-0.192 0.999h-13.477zM27.465 29.432c-0.943 0.351-1.881 0.017-1.916 0.005-0.25-0.097-0.518-0.099-0.768-0-0.009 0.004-0.96 0.352-1.917-0.004-1.338-0.498-2.223-2.556-2.21-4.165 0.004-0.466 0.095-1.578 0.858-1.849 0.349-0.124 0.661-0.175 0.939-0.175 1.107 0 1.657 0.812 1.782 1.024 0.184 0.35 0.535 0.569 0.931 0.569s0.747-0.219 0.931-0.569c0.156-0.266 0.977-1.468 2.721-0.849 0.763 0.271 0.854 1.383 0.858 1.849 0.013 1.609-0.872 3.667-2.21 4.165z"></path></symbol>
    </defs>
</svg>